<svg enable-background="new 0 0 64 64" height="512" viewBox="0 0 64 64" width="512" xmlns="http://www.w3.org/2000/svg"><path d="m20.014 45.767c-.654 1.704-2.566 2.559-4.271 1.905-1.707-.653-2.56-2.566-1.907-4.273.654-1.705 3.41-4.761 5.116-4.107 1.707.652 1.715 4.766 1.062 6.475z" fill="#84dbff"/><path d="m17.743 47.672c-1.707-.653-2.56-2.566-1.907-4.273.469-1.224 2.02-3.135 3.489-3.88-.115-.093-.237-.174-.373-.227-1.706-.654-4.461 2.402-5.116 4.107-.653 1.706.2 3.619 1.907 4.273.728.279 1.49.269 2.18.049-.06-.019-.121-.026-.18-.049z" fill="#caf4ff"/><path d="m16.921 48.391c-.452 0-.911-.081-1.357-.252-1.961-.75-2.945-2.957-2.195-4.918.655-1.709 3.587-5.23 5.762-4.395.942.36 1.559 1.517 1.735 3.257.137 1.351-.018 2.903-.385 3.862-.581 1.514-2.028 2.446-3.56 2.446zm1.511-8.691c-1.342 0-3.535 2.332-4.129 3.878-.553 1.446.173 3.073 1.619 3.626 1.445.553 3.071-.172 3.626-1.617.311-.813.444-2.213.323-3.404-.132-1.306-.542-2.212-1.097-2.424-.107-.04-.221-.059-.342-.059z" fill="#63312d"/><path d="m34.6 45.767c-.654 1.704-2.566 2.559-4.272 1.905-1.707-.653-2.559-2.566-1.907-4.273.654-1.705 3.41-4.761 5.116-4.107 1.707.652 1.716 4.766 1.063 6.475z" fill="#84dbff"/><path d="m32.328 47.672c-1.707-.653-2.56-2.566-1.907-4.273.469-1.224 2.021-3.135 3.489-3.88-.115-.093-.237-.174-.374-.227-1.706-.654-4.461 2.402-5.116 4.107-.653 1.706.2 3.619 1.907 4.273.729.279 1.49.269 2.18.049-.059-.019-.119-.026-.179-.049z" fill="#caf4ff"/><path d="m31.506 48.391c-.452 0-.911-.081-1.357-.252-1.961-.75-2.945-2.957-2.195-4.918.656-1.709 3.589-5.23 5.762-4.395.942.36 1.559 1.517 1.735 3.257.137 1.351-.018 2.903-.385 3.862-.58 1.514-2.028 2.446-3.56 2.446zm1.511-8.691c-1.342 0-3.535 2.332-4.129 3.878-.553 1.446.173 3.073 1.619 3.626 1.445.553 3.071-.172 3.626-1.617.311-.813.444-2.213.323-3.404-.132-1.306-.542-2.212-1.097-2.424-.106-.04-.22-.059-.342-.059z" fill="#63312d"/><path d="m27.307 58.204c-.654 1.704-2.566 2.559-4.271 1.905-1.707-.653-2.559-2.566-1.907-4.273.654-1.705 3.41-4.761 5.116-4.107 1.707.653 1.715 4.766 1.062 6.475z" fill="#84dbff"/><path d="m25.036 60.109c-1.707-.653-2.559-2.566-1.907-4.273.469-1.224 2.021-3.135 3.489-3.88-.115-.093-.237-.174-.374-.227-1.705-.654-4.461 2.402-5.116 4.107-.653 1.706.2 3.619 1.907 4.273.729.279 1.49.269 2.18.049-.059-.019-.12-.026-.179-.049z" fill="#caf4ff"/><path d="m24.214 60.828c-.452 0-.911-.081-1.357-.252-1.961-.75-2.945-2.957-2.195-4.918.656-1.71 3.59-5.232 5.762-4.395.942.36 1.559 1.517 1.735 3.257.137 1.351-.018 2.903-.385 3.862-.581 1.515-2.028 2.446-3.56 2.446zm1.511-8.69c-1.342 0-3.535 2.332-4.129 3.878-.553 1.446.173 3.073 1.619 3.626 1.447.554 3.071-.171 3.626-1.617.311-.813.444-2.213.323-3.404-.132-1.306-.542-2.212-1.097-2.424-.107-.04-.221-.059-.342-.059z" fill="#63312d"/><path d="m41.893 58.204c-.654 1.704-2.566 2.559-4.271 1.905-1.707-.653-2.56-2.566-1.907-4.273.654-1.705 3.41-4.761 5.116-4.107 1.706.653 1.715 4.766 1.062 6.475z" fill="#84dbff"/><path d="m39.621 60.109c-1.707-.653-2.56-2.566-1.907-4.273.469-1.224 2.021-3.135 3.489-3.88-.115-.093-.237-.174-.374-.227-1.706-.654-4.461 2.402-5.116 4.107-.653 1.706.2 3.619 1.907 4.273.729.279 1.49.269 2.18.049-.059-.019-.119-.026-.179-.049z" fill="#caf4ff"/><path d="m38.799 60.828c-.452 0-.911-.081-1.357-.252-1.961-.75-2.945-2.957-2.195-4.918.655-1.71 3.587-5.232 5.762-4.395.942.36 1.559 1.517 1.735 3.257.137 1.351-.018 2.903-.385 3.862-.58 1.515-2.028 2.446-3.56 2.446zm1.511-8.69c-1.342 0-3.535 2.332-4.129 3.878-.553 1.446.173 3.073 1.619 3.626 1.447.554 3.071-.171 3.626-1.617.311-.813.444-2.213.323-3.404-.132-1.306-.542-2.212-1.097-2.424-.106-.04-.22-.059-.342-.059z" fill="#63312d"/><path d="m49.185 45.767c-.654 1.704-2.566 2.559-4.271 1.905-1.707-.653-2.56-2.566-1.907-4.273.654-1.705 3.41-4.761 5.116-4.107 1.707.652 1.715 4.766 1.062 6.475z" fill="#84dbff"/><path d="m46.914 47.672c-1.707-.653-2.56-2.566-1.907-4.273.469-1.224 2.021-3.135 3.489-3.88-.115-.093-.237-.174-.374-.227-1.706-.654-4.461 2.402-5.116 4.107-.653 1.706.2 3.619 1.907 4.273.729.279 1.49.269 2.18.049-.059-.019-.12-.026-.179-.049z" fill="#caf4ff"/><path d="m46.092 48.391c-.452 0-.911-.081-1.357-.252-1.961-.75-2.945-2.957-2.195-4.918.655-1.709 3.586-5.23 5.762-4.395.942.36 1.559 1.517 1.735 3.257.137 1.351-.018 2.903-.385 3.862-.581 1.514-2.028 2.446-3.56 2.446zm1.511-8.691c-1.342 0-3.535 2.332-4.129 3.878-.553 1.446.173 3.073 1.619 3.626 1.445.553 3.071-.172 3.626-1.617.311-.813.444-2.213.323-3.404-.132-1.306-.542-2.212-1.097-2.424-.107-.04-.221-.059-.342-.059z" fill="#63312d"/><path d="m52.263 14.922h-2.329c.005-.13.014-.26.014-.392 0-6.247-5.065-11.312-11.313-11.312h-6.135v1.816c-3.069 1.989-5.117 5.42-5.172 9.336-.851-1.129-2.198-1.861-3.72-1.861h-6.038v5.25c-.37-.06-.747-.099-1.134-.099-3.96 0-7.172 3.211-7.172 7.172s3.211 7.172 7.172 7.172h35.827c4.716 0 8.541-3.824 8.541-8.541s-3.825-8.541-8.541-8.541z" fill="#52b8d9"/><path d="m52.263 32.504h-35.827c-4.23 0-7.672-3.441-7.672-7.672s3.441-7.672 7.672-7.672c.206 0 .416.01.634.03v-4.681c0-.276.224-.5.5-.5h6.039c1.226 0 2.378.424 3.294 1.19.384-3.403 2.231-6.481 5.097-8.433v-1.548c0-.276.224-.5.5-.5h6.136c6.477 0 11.753 5.24 11.812 11.704h1.815c4.985 0 9.041 4.056 9.041 9.041s-4.055 9.041-9.041 9.041zm-35.827-14.344c-3.679 0-6.672 2.993-6.672 6.672s2.993 6.672 6.672 6.672h35.827c4.434 0 8.041-3.607 8.041-8.041s-3.607-8.041-8.041-8.041h-2.329c-.136 0-.267-.056-.361-.154s-.145-.23-.139-.367l.005-.113c.004-.085.008-.171.008-.258 0-5.962-4.851-10.812-10.813-10.812h-5.634v1.316c0 .169-.086.328-.228.419-3.045 1.973-4.894 5.309-4.944 8.924-.003.214-.142.402-.345.468-.203.067-.426-.003-.555-.174-.796-1.056-2.007-1.662-3.321-1.662h-5.537v4.75c0 .146-.064.286-.176.381-.111.095-.263.136-.404.113-.382-.063-.727-.093-1.054-.093z" fill="#63312d"/><path d="m46.263 14.922c-.813 0-1.596.121-2.34.333.015-.24.026-.48.026-.724 0-6.247-5.065-11.312-11.313-11.312-6.193 0-11.222 4.979-11.308 11.152-.851-1.129-2.198-1.861-3.72-1.861-2.575 0-4.662 2.087-4.662 4.662 0 .34.039.67.107.989-.812-.319-1.693-.5-2.618-.5-3.96 0-7.172 3.211-7.172 7.172s3.211 7.172 7.172 7.172h35.827c4.716 0 8.541-3.824 8.541-8.541.001-4.718-3.824-8.542-8.54-8.542z" fill="#84dbff"/><path d="m5.264 26.832c0-3.961 3.211-7.172 7.172-7.172.925 0 1.806.181 2.618.5-.069-.319-.107-.649-.107-.989 0-2.575 2.087-4.662 4.662-4.662 1.522 0 2.869.732 3.72 1.861.086-6.173 5.114-11.152 11.308-11.152 2.614 0 5.013.895 6.929 2.384-2.069-2.663-5.295-4.384-8.929-4.384-6.193 0-11.222 4.979-11.308 11.152-.851-1.129-2.198-1.861-3.72-1.861-2.575 0-4.662 2.087-4.662 4.662 0 .34.039.67.107.989-.812-.319-1.693-.5-2.618-.5-3.96 0-7.172 3.211-7.172 7.172 0 2.492 1.272 4.685 3.201 5.971-.758-1.137-1.201-2.502-1.201-3.971z" fill="#caf4ff"/><path d="m46.263 32.504h-35.827c-4.23 0-7.672-3.441-7.672-7.672s3.441-7.672 7.672-7.672c.683 0 1.358.092 2.017.273-.004-.088-.007-.176-.007-.263 0-2.846 2.316-5.162 5.162-5.162 1.226 0 2.378.424 3.294 1.19.668-5.875 5.705-10.48 11.734-10.48 6.514 0 11.813 5.299 11.813 11.812v.081c.604-.125 1.212-.189 1.815-.189 4.985 0 9.041 4.056 9.041 9.041s-4.056 9.041-9.042 9.041zm-35.827-14.344c-3.679 0-6.672 2.993-6.672 6.672s2.993 6.672 6.672 6.672h35.827c4.434 0 8.041-3.607 8.041-8.041s-3.607-8.041-8.041-8.041c-.731 0-1.473.105-2.204.313-.156.043-.323.011-.451-.092-.126-.102-.195-.259-.185-.421.015-.229.025-.459.025-.692 0-5.962-4.851-10.812-10.813-10.812-5.877 0-10.726 4.782-10.808 10.659-.003.214-.142.402-.345.468-.203.067-.427-.003-.555-.174-.796-1.056-2.007-1.662-3.321-1.662-2.295 0-4.162 1.867-4.162 4.162 0 .291.032.588.096.884.039.18-.024.367-.165.486-.14.12-.333.152-.507.084-.783-.308-1.601-.465-2.432-.465z" fill="#63312d"/></svg>